# xmcd
#
# Track frame offsets:
#	150
#	17652
#	35192
#	52130
#	63844
#	79869
#	91134
#	103816
#	119221
#	134444
#	147000
#	164029
#	178291
#	198348
#	214782
#	231646
#	245066
#	261149
#	271389
#	281922
#	298390
#	312431
#
# Disc length: 4429 seconds
#
# Revision: 1
# Processed by: cddbd v1.5.2PL0 Copyright (c) Steve Scherf et al.
# Submitted via: audiograbber 1.83.01
#
DISCID=71114b16
DTITLE=CMA - CDX 1030 - Dec 2011
DYEAR=2011
DGENRE=Christmas Country
TTITLE0=Toby Keith - Santa's Going South
TTITLE1=Little Big Town - Have Yourself a Merry Little Christmas
TTITLE2=Rachel Holder - Christmas Eve
TTITLE3=Star de Azlan - Santa Baby
TTITLE4=Star de Azlan - Feliz Navidad
TTITLE5=Carter's Chord - Up On The Housetop
TTITLE6=Point of Grace - Candy Cane Lane
TTITLE7=Mandy Barnett - (There's No Place Like) Home For
TTITLE8=Joey and Rory - Remember Me
TTITLE9=David Ball - The Greatest Christmas 
TTITLE10=Marthia Sides - I'll Be Home For Christmas 
TTITLE11=Mike Aiken - Almost Christmas
TTITLE12=Charlie Monk - Andy and Opie Christmas
TTITLE13=Angela James - Holiday Me Baby
TTITLE14=Henry O'Neill - It's Christmas
TTITLE15=Jerry Layne - It's Christmas Day  
TTITLE16=Steve Free - Light of Christmas
TTITLE17=Erica Nicole - Little St. Nick
TTITLE18=Lucy Angel - Mr. Santa
TTITLE19=Amy Ames - Santa's Littlest Elf
TTITLE20=Jacob Lyda - 'Tis The Season To Be Lonesome
TTITLE21=Timothy Craig - One Small Miracle
EXTD=
EXTT0=
EXTT1=
EXTT2=
EXTT3=
EXTT4=
EXTT5=
EXTT6=
EXTT7=
EXTT8=
EXTT9=
EXTT10=
EXTT11=
EXTT12=
EXTT13=
EXTT14=
EXTT15=
EXTT16=
EXTT17=
EXTT18=
EXTT19=
EXTT20=
EXTT21=
PLAYORDER=
